# xmcd
#
# Track frame offsets:
#	150
#	2550
#	14085
#	30455
#	41755
#	55032
#	65802
#	81437
#	89862
#	100082
#	113887
#	125457
#	138842
#	153472
#	161967
#	176542
#	185760
#	197920
#
# Disc length: 2672 seconds
#
# Revision: 0
# Processed by: cddbd v1.4PL0 Copyright (c) Steve Scherf et al.
# Submitted via: MusicWizard 6.0.0
#
DISCID=010a6e12
DTITLE=Johnny Western - Heroes And Cowboys - Vol. 3
DYEAR=1993
DGENRE=Western
TTITLE0=Stay A Little Longer, Stay All Night (Theme)
TTITLE1=The Ballad Of Paladin
TTITLE2=Lonely Street
TTITLE3=You Weren't Ashamed To Kiss Me Last Night
TTITLE4=Rollin' Dust
TTITLE5=John Henry
TTITLE6=Remember Me
TTITLE7=The Wayward Wind
TTITLE8=Gotta Travel On
TTITLE9=Cowpoke
TTITLE10=Ghostriders In The Sky
TTITLE11=I Still Miss Someone
TTITLE12=Only The Lonely
TTITLE13=I Take A Country Girl For Mine (Texas Bill Strength)
TTITLE14=Delia's Gone
TTITLE15=I Walk The Line
TTITLE16=The Lilies Grow High
TTITLE17=Stay A Little Longer, Stay All Night (Theme)
EXTD=(c)1993 Bear Family
EXTT0=
EXTT1=
EXTT2=
EXTT3=
EXTT4=
EXTT5=
EXTT6=
EXTT7=
EXTT8=
EXTT9=
EXTT10=
EXTT11=
EXTT12=
EXTT13=
EXTT14=
EXTT15=
EXTT16=
EXTT17=
PLAYORDER=
